<svg width="179" height="100" viewBox="0 0 179 100" fill="none" xmlns="http://www.w3.org/2000/svg">
<path d="M36.4658 72.9167C40.4929 72.9167 43.7575 76.1813 43.7575 80.2083C43.7575 84.2354 40.4929 87.5 36.4658 87.5C32.4387 87.5 29.1741 84.2354 29.1741 80.2083C29.1741 76.1813 32.4387 72.9167 36.4658 72.9167ZM36.4658 78.125C35.3152 78.125 34.3824 79.0577 34.3824 80.2083C34.3824 81.3589 35.3152 82.2917 36.4658 82.2917C37.6164 82.2917 38.5491 81.3589 38.5491 80.2083C38.5491 79.0577 37.6164 78.125 36.4658 78.125ZM79.2141 36.4583C86.0957 36.4583 91.6754 42.0329 91.6754 48.9106C91.6754 55.7852 86.04 61.3922 79.1551 61.3922L79.2234 61.3941C79.1218 61.4171 79.0179 61.4341 78.9121 61.4449L78.6458 61.4583L72.3261 61.4577C73.5046 63.2513 74.1898 65.3932 74.1898 67.6953C74.1898 74.0745 69.4017 79.1688 63.0743 79.1688C56.7864 79.1688 53.0295 75.5311 52.0096 70.443C51.7269 69.0328 52.641 67.6605 54.0512 67.3778C55.4614 67.0952 56.8337 68.0092 57.1164 69.4194C57.6798 72.2302 59.4667 73.9605 63.0743 73.9605C66.4505 73.9605 68.9814 71.2678 68.9814 67.6953C68.9814 64.3802 66.3486 61.6591 63.0154 61.4689L62.6422 61.4583H10.9375C9.49924 61.4583 8.33331 60.2924 8.33331 58.8542C8.33331 57.5058 9.35805 56.3968 10.6712 56.2634L10.9375 56.25L78.5733 56.2491C78.7604 56.2064 78.9551 56.1838 79.1551 56.1838C83.1694 56.1838 86.4671 52.9028 86.4671 48.9106C86.4671 44.9104 83.2203 41.6667 79.2141 41.6667C75.3732 41.6667 72.2041 44.6583 71.9744 48.4658C71.8878 49.9014 70.6538 50.995 69.2182 50.9084C67.7826 50.8219 66.6889 49.5878 66.7755 48.1522C67.1709 41.598 72.6155 36.4583 79.2141 36.4583ZM47.899 12.5C57.0941 12.5 64.5481 19.954 64.5481 29.1491C64.5481 38.1873 57.3461 45.5434 48.3678 45.7916L48.1456 45.8231L47.9166 45.8333H10.9375C9.49924 45.8333 8.33331 44.6674 8.33331 43.2292C8.33331 41.8808 9.35805 40.7718 10.6712 40.6384L10.9375 40.625L47.4816 40.6231L47.688 40.5982L47.899 40.5898C54.2176 40.5898 59.3398 35.4676 59.3398 29.1491C59.3398 22.8305 54.2176 17.7083 47.899 17.7083C41.5805 17.7083 36.4583 22.8305 36.4583 29.1491C36.4583 30.5873 35.2924 31.7532 33.8541 31.7532C32.4159 31.7532 31.25 30.5873 31.25 29.1491C31.25 19.954 38.704 12.5 47.899 12.5ZM80.2158 14.6123C84.2429 14.6123 87.5074 17.8769 87.5074 21.9039C87.5074 25.931 84.2429 29.1956 80.2158 29.1956C76.1887 29.1956 72.9241 25.931 72.9241 21.9039C72.9241 17.8769 76.1887 14.6123 80.2158 14.6123ZM15.6298 10.4167C19.6555 10.4167 22.9189 13.6801 22.9189 17.7057C22.9189 21.7314 19.6555 24.9948 15.6298 24.9948C11.6042 24.9948 8.34078 21.7314 8.34078 17.7057C8.34078 13.6801 11.6042 10.4167 15.6298 10.4167ZM80.2158 19.8206C79.0652 19.8206 78.1324 20.7533 78.1324 21.9039C78.1324 23.0545 79.0652 23.9873 80.2158 23.9873C81.3664 23.9873 82.2991 23.0545 82.2991 21.9039C82.2991 20.7533 81.3664 19.8206 80.2158 19.8206ZM15.6298 15.625C14.4807 15.625 13.5491 16.5566 13.5491 17.7057C13.5491 18.8549 14.4807 19.7864 15.6298 19.7864C16.779 19.7864 17.7106 18.8549 17.7106 17.7057C17.7106 16.5566 16.779 15.625 15.6298 15.625Z" fill="#8A84E2"/>
<path d="M108.398 40.58C109.941 40.58 111.275 40.8747 112.402 41.464C113.529 42.036 114.482 42.8853 115.262 44.012L113.39 45.806C112.731 44.8007 111.986 44.0813 111.154 43.648C110.339 43.1973 109.369 42.972 108.242 42.972C107.41 42.972 106.725 43.0847 106.188 43.31C105.651 43.5353 105.252 43.8387 104.992 44.22C104.749 44.584 104.628 45 104.628 45.468C104.628 46.0053 104.81 46.4733 105.174 46.872C105.555 47.2707 106.257 47.5827 107.28 47.808L110.764 48.588C112.428 48.952 113.607 49.5067 114.3 50.252C114.993 50.9973 115.34 51.942 115.34 53.086C115.34 54.1433 115.054 55.062 114.482 55.842C113.91 56.622 113.113 57.22 112.09 57.636C111.085 58.052 109.897 58.26 108.528 58.26C107.315 58.26 106.223 58.104 105.252 57.792C104.281 57.48 103.432 57.0553 102.704 56.518C101.976 55.9807 101.378 55.3653 100.91 54.672L102.834 52.748C103.198 53.3547 103.657 53.9007 104.212 54.386C104.767 54.854 105.408 55.218 106.136 55.478C106.881 55.738 107.705 55.868 108.606 55.868C109.403 55.868 110.088 55.7727 110.66 55.582C111.249 55.3913 111.691 55.114 111.986 54.75C112.298 54.3687 112.454 53.918 112.454 53.398C112.454 52.8953 112.281 52.4533 111.934 52.072C111.605 51.6907 110.981 51.396 110.062 51.188L106.292 50.33C105.252 50.1047 104.394 49.784 103.718 49.368C103.042 48.952 102.539 48.4493 102.21 47.86C101.881 47.2533 101.716 46.5773 101.716 45.832C101.716 44.8613 101.976 43.986 102.496 43.206C103.033 42.4087 103.805 41.776 104.81 41.308C105.815 40.8227 107.011 40.58 108.398 40.58ZM122.636 41.178V54.1C122.636 54.7413 122.8 55.2093 123.13 55.504C123.476 55.7987 123.936 55.946 124.508 55.946C124.976 55.946 125.383 55.8767 125.73 55.738C126.076 55.582 126.397 55.374 126.692 55.114L127.316 57.142C126.917 57.4887 126.423 57.766 125.834 57.974C125.262 58.1647 124.62 58.26 123.91 58.26C123.164 58.26 122.48 58.1387 121.856 57.896C121.232 57.6533 120.746 57.2633 120.4 56.726C120.053 56.1713 119.871 55.452 119.854 54.568V41.958L122.636 41.178ZM127.108 45V47.184H117.358V45H127.108ZM135.501 44.74C136.767 44.74 137.885 45.0087 138.855 45.546C139.826 46.0833 140.58 46.8633 141.117 47.886C141.672 48.8913 141.949 50.096 141.949 51.5C141.949 52.904 141.672 54.1173 141.117 55.14C140.58 56.1453 139.826 56.9167 138.855 57.454C137.885 57.9913 136.767 58.26 135.501 58.26C134.236 58.26 133.118 57.9913 132.147 57.454C131.177 56.9167 130.414 56.1453 129.859 55.14C129.305 54.1173 129.027 52.904 129.027 51.5C129.027 50.096 129.305 48.8913 129.859 47.886C130.414 46.8633 131.177 46.0833 132.147 45.546C133.118 45.0087 134.236 44.74 135.501 44.74ZM135.501 46.924C134.721 46.924 134.054 47.106 133.499 47.47C132.962 47.8167 132.546 48.328 132.251 49.004C131.957 49.68 131.809 50.512 131.809 51.5C131.809 52.4707 131.957 53.3027 132.251 53.996C132.546 54.672 132.962 55.192 133.499 55.556C134.054 55.9027 134.721 56.076 135.501 56.076C136.281 56.076 136.94 55.9027 137.477 55.556C138.015 55.192 138.431 54.672 138.725 53.996C139.02 53.3027 139.167 52.4707 139.167 51.5C139.167 50.512 139.02 49.68 138.725 49.004C138.431 48.328 138.015 47.8167 137.477 47.47C136.94 47.106 136.281 46.924 135.501 46.924ZM145.449 58V45H147.815L148.075 47.34C148.422 46.4907 148.933 45.8493 149.609 45.416C150.302 44.9653 151.152 44.74 152.157 44.74C152.417 44.74 152.677 44.766 152.937 44.818C153.197 44.8527 153.414 44.9133 153.587 45L153.197 47.444C153.006 47.3747 152.79 47.3227 152.547 47.288C152.322 47.236 152.01 47.21 151.611 47.21C151.074 47.21 150.545 47.3573 150.025 47.652C149.505 47.9293 149.072 48.354 148.725 48.926C148.396 49.498 148.231 50.226 148.231 51.11V58H145.449ZM156.215 58V45H158.685L158.815 47.184C159.265 46.352 159.863 45.7367 160.609 45.338C161.371 44.9393 162.177 44.74 163.027 44.74C163.963 44.74 164.821 44.9567 165.601 45.39C166.398 45.806 166.996 46.4387 167.395 47.288C167.672 46.716 168.053 46.2393 168.539 45.858C169.024 45.4767 169.561 45.1993 170.151 45.026C170.74 44.8353 171.321 44.74 171.893 44.74C172.725 44.74 173.505 44.9133 174.233 45.26C174.961 45.6067 175.55 46.1353 176.001 46.846C176.451 47.5567 176.677 48.4667 176.677 49.576V58H173.895V50.018C173.895 48.9607 173.643 48.198 173.141 47.73C172.638 47.262 171.997 47.028 171.217 47.028C170.61 47.028 170.047 47.1753 169.527 47.47C169.024 47.7647 168.617 48.2067 168.305 48.796C167.993 49.368 167.837 50.0787 167.837 50.928V58H165.055V50.018C165.055 48.9607 164.803 48.198 164.301 47.73C163.798 47.262 163.157 47.028 162.377 47.028C161.857 47.028 161.337 47.1667 160.817 47.444C160.297 47.7213 159.863 48.1547 159.517 48.744C159.17 49.3333 158.997 50.1133 158.997 51.084V58H156.215Z" fill="#8A84E2"/>
<path d="M91.774 67.74C92.814 67.74 93.698 67.896 94.426 68.208C95.1713 68.5027 95.7953 68.9273 96.298 69.482C96.8007 70.0367 97.182 70.6693 97.442 71.38L94.816 72.42C94.5907 71.6227 94.2267 71.016 93.724 70.6C93.2387 70.1667 92.5973 69.95 91.8 69.95C91.02 69.95 90.3527 70.132 89.798 70.496C89.2433 70.8427 88.8187 71.354 88.524 72.03C88.2467 72.706 88.108 73.538 88.108 74.526C88.108 75.4967 88.2553 76.32 88.55 76.996C88.8447 77.672 89.2693 78.1833 89.824 78.53C90.3787 78.8767 91.0373 79.05 91.8 79.05C92.3893 79.05 92.9007 78.9547 93.334 78.764C93.7673 78.556 94.1227 78.27 94.4 77.906C94.6947 77.5247 94.894 77.0653 94.998 76.528L97.52 77.386C97.2773 78.166 96.896 78.8507 96.376 79.44C95.8733 80.012 95.2407 80.4627 94.478 80.792C93.7153 81.104 92.84 81.26 91.852 81.26C90.5693 81.26 89.434 80.9913 88.446 80.454C87.458 79.9167 86.6867 79.1453 86.132 78.14C85.5947 77.1173 85.326 75.904 85.326 74.5C85.326 73.096 85.5947 71.8913 86.132 70.886C86.6867 69.8633 87.4493 69.0833 88.42 68.546C89.408 68.0087 90.526 67.74 91.774 67.74ZM108.272 72.654C108.272 71.7873 108.029 71.12 107.544 70.652C107.076 70.1667 106.426 69.924 105.594 69.924C104.814 69.924 104.146 70.106 103.592 70.47C103.037 70.834 102.63 71.4233 102.37 72.238L100.03 71.25C100.359 70.1927 101 69.3433 101.954 68.702C102.924 68.0607 104.172 67.74 105.698 67.74C106.738 67.74 107.656 67.9133 108.454 68.26C109.251 68.5893 109.875 69.092 110.326 69.768C110.794 70.444 111.028 71.3107 111.028 72.368V78.166C111.028 78.8073 111.348 79.128 111.99 79.128C112.302 79.128 112.605 79.0847 112.9 78.998L112.744 80.922C112.345 81.1127 111.842 81.208 111.236 81.208C110.681 81.208 110.178 81.1127 109.728 80.922C109.294 80.714 108.948 80.4107 108.688 80.012C108.445 79.596 108.324 79.0847 108.324 78.478V78.296L108.896 78.27C108.74 78.946 108.419 79.5093 107.934 79.96C107.448 80.3933 106.885 80.7227 106.244 80.948C105.602 81.156 104.952 81.26 104.294 81.26C103.479 81.26 102.742 81.13 102.084 80.87C101.442 80.61 100.931 80.22 100.55 79.7C100.186 79.1627 100.004 78.504 100.004 77.724C100.004 76.7533 100.316 75.956 100.94 75.332C101.581 74.708 102.482 74.2833 103.644 74.058L108.688 73.07L108.662 75.02L104.996 75.774C104.268 75.9127 103.722 76.112 103.358 76.372C102.994 76.632 102.812 77.0133 102.812 77.516C102.812 78.0013 102.994 78.3913 103.358 78.686C103.739 78.9633 104.242 79.102 104.866 79.102C105.299 79.102 105.715 79.05 106.114 78.946C106.53 78.842 106.902 78.6773 107.232 78.452C107.561 78.2093 107.812 77.906 107.986 77.542C108.176 77.1607 108.272 76.71 108.272 76.19V72.654ZM120.526 81.26C119.226 81.26 118.038 81.0087 116.964 80.506C115.889 80.0033 115.04 79.2927 114.416 78.374L116.34 76.71C116.721 77.4207 117.267 77.9927 117.978 78.426C118.706 78.842 119.572 79.05 120.578 79.05C121.375 79.05 122.008 78.9113 122.476 78.634C122.944 78.3567 123.178 77.9667 123.178 77.464C123.178 77.1347 123.065 76.8487 122.84 76.606C122.632 76.346 122.224 76.1467 121.618 76.008L118.888 75.436C117.501 75.1587 116.513 74.7167 115.924 74.11C115.334 73.486 115.04 72.6973 115.04 71.744C115.04 71.0333 115.248 70.3747 115.664 69.768C116.08 69.1613 116.686 68.676 117.484 68.312C118.298 67.9307 119.269 67.74 120.396 67.74C121.696 67.74 122.805 67.974 123.724 68.442C124.642 68.8927 125.344 69.5427 125.83 70.392L123.906 72.004C123.576 71.3107 123.091 70.7993 122.45 70.47C121.808 70.1233 121.141 69.95 120.448 69.95C119.893 69.95 119.416 70.0193 119.018 70.158C118.619 70.2967 118.316 70.4873 118.108 70.73C117.9 70.9727 117.796 71.2587 117.796 71.588C117.796 71.9347 117.926 72.238 118.186 72.498C118.446 72.758 118.914 72.9573 119.59 73.096L122.554 73.72C123.802 73.9627 124.677 74.3787 125.18 74.968C125.7 75.54 125.96 76.242 125.96 77.074C125.96 77.906 125.743 78.6427 125.31 79.284C124.876 79.908 124.252 80.3933 123.438 80.74C122.623 81.0867 121.652 81.26 120.526 81.26ZM133.143 64.178V77.1C133.143 77.7413 133.308 78.2093 133.637 78.504C133.984 78.7987 134.443 78.946 135.015 78.946C135.483 78.946 135.891 78.8767 136.237 78.738C136.584 78.582 136.905 78.374 137.199 78.114L137.823 80.142C137.425 80.4887 136.931 80.766 136.341 80.974C135.769 81.1647 135.128 81.26 134.417 81.26C133.672 81.26 132.987 81.1387 132.363 80.896C131.739 80.6533 131.254 80.2633 130.907 79.726C130.561 79.1713 130.379 78.452 130.361 77.568V64.958L133.143 64.178ZM137.615 68V70.184H127.865V68H137.615Z" fill="#FFCF56"/>
</svg>
