<svg width="30" height="30" viewBox="0 0 30 30" fill="none" xmlns="http://www.w3.org/2000/svg">
<path d="M11.3267 5C9.44997 5.80653 7.85115 7.14184 6.72705 8.84152C5.60294 10.5412 5.00262 12.5311 5 14.5661C5 17.3333 6.10416 19.9872 8.06957 21.944C10.035 23.9007 12.7007 25 15.4802 25C17.4863 24.998 19.4497 24.4228 21.1372 23.3427C22.8247 22.2626 24.1654 20.723 25 18.9068C23.6889 19.4752 22.2748 19.7706 20.8448 19.7746C18.0653 19.7746 15.3996 18.6753 13.4342 16.7185C11.4688 14.7618 10.3646 12.1079 10.3646 9.34066C10.3684 7.84178 10.6965 6.3613 11.3267 5Z" fill="#FFCF56"/>
</svg>
