<svg width="21" height="21" viewBox="0 0 21 21" fill="none" xmlns="http://www.w3.org/2000/svg">
<g clip-path="url(#clip0_5_37)">
<path d="M10.7 14.9183C13.1402 14.9183 15.1183 12.9401 15.1183 10.5C15.1183 8.05985 13.1402 6.08171 10.7 6.08171C8.25987 6.08171 6.28174 8.05985 6.28174 10.5C6.28174 12.9401 8.25987 14.9183 10.7 14.9183Z" fill="#FFCF56"/>
<path d="M10.7 15.6408C7.86541 15.6408 5.55927 13.3347 5.55927 10.5001C5.55927 7.6655 7.86541 5.35936 10.7 5.35936C13.5346 5.35936 15.8407 7.6655 15.8407 10.5001C15.8407 13.3347 13.5346 15.6408 10.7 15.6408ZM10.7 6.80416C8.66212 6.80416 7.00416 8.46212 7.00416 10.5C7.00416 12.5379 8.66212 14.1958 10.7 14.1958C12.7379 14.1958 14.3958 12.5379 14.3958 10.5C14.3958 8.46212 12.7379 6.80416 10.7 6.80416Z" fill="#FFCF56"/>
<path d="M10.7 4.2938C10.301 4.2938 9.97754 3.97034 9.97754 3.57136V1.22245C9.97754 0.823463 10.301 0.5 10.7 0.5C11.099 0.5 11.4224 0.823463 11.4224 1.22245V3.57136C11.4224 3.97034 11.099 4.2938 10.7 4.2938Z" fill="#FFCF56"/>
<path d="M10.7 20.5C10.301 20.5 9.97754 20.1765 9.97754 19.7776V17.4286C9.97754 17.0297 10.301 16.7062 10.7 16.7062C11.099 16.7062 11.4224 17.0297 11.4224 17.4286V19.7776C11.4224 20.1766 11.099 20.5 10.7 20.5Z" fill="#FFCF56"/>
<path d="M19.9775 11.2224H17.6286C17.2297 11.2224 16.9062 10.899 16.9062 10.5C16.9062 10.101 17.2297 9.77756 17.6286 9.77756H19.9775C20.3765 9.77756 20.7 10.101 20.7 10.5C20.7 10.899 20.3766 11.2224 19.9775 11.2224Z" fill="#FFCF56"/>
<path d="M3.77137 11.2224H1.42246C1.02348 11.2224 0.700012 10.899 0.700012 10.5C0.700012 10.101 1.02348 9.77756 1.42246 9.77756H3.77137C4.17035 9.77756 4.49382 10.101 4.49382 10.5C4.49382 10.899 4.17035 11.2224 3.77137 11.2224Z" fill="#FFCF56"/>
<path d="M15.5994 6.32311C15.4145 6.32311 15.2296 6.25259 15.0886 6.11148C14.8064 5.82934 14.8064 5.37188 15.0886 5.08984L16.7495 3.42899C17.0316 3.14685 17.4891 3.14675 17.7711 3.42899C18.0533 3.71113 18.0533 4.16858 17.7711 4.45062L16.1102 6.11148C15.9692 6.25259 15.7842 6.32311 15.5994 6.32311Z" fill="#FFCF56"/>
<path d="M4.13972 17.7827C3.95487 17.7827 3.76992 17.7122 3.6289 17.5711C3.34676 17.289 3.34676 16.8315 3.6289 16.5495L5.28985 14.8885C5.57199 14.6064 6.02945 14.6064 6.31149 14.8885C6.59363 15.1707 6.59363 15.6281 6.31149 15.9102L4.65054 17.5711C4.50952 17.7122 4.32467 17.7827 4.13972 17.7827Z" fill="#FFCF56"/>
<path d="M17.2602 17.7827C17.0754 17.7827 16.8904 17.7122 16.7494 17.5711L15.0884 15.9102C14.8063 15.628 14.8063 15.1706 15.0884 14.8885C15.3706 14.6064 15.828 14.6064 16.1101 14.8885L17.771 16.5495C18.0532 16.8316 18.0532 17.2891 17.771 17.5711C17.63 17.7122 17.4452 17.7827 17.2602 17.7827Z" fill="#FFCF56"/>
<path d="M5.80067 6.32311C5.61582 6.32311 5.43087 6.25259 5.28985 6.11148L3.6289 4.45062C3.34676 4.16848 3.34676 3.71113 3.6289 3.42899C3.91104 3.14685 4.36849 3.14675 4.65054 3.42899L6.31149 5.08984C6.59363 5.37198 6.59363 5.82934 6.31149 6.11148C6.17047 6.25259 5.98562 6.32311 5.80067 6.32311Z" fill="#FFCF56"/>
</g>
<defs>
<clipPath id="clip0_5_37">
<rect width="20" height="20" fill="white" transform="translate(0.700012 0.5)"/>
</clipPath>
</defs>
</svg>
